# File created by Blade
# Date/Time:  Wed Jan 21 17:41:14 2015
# Frame Rate: 120.000 fps
#------------------------------------------------------
:FULLY-SPECIFIED
:DEGREES
1447
root 18.762849 32.346867 -21.627218 -377.634485 81.639705 -453.176253
Spine 70.858376 6.615206 -3.412530
Head -20.536406 6.522355 0.352585
LeftShoulder 5.738582 -40.515179 35.972855
LeftArm 47.756614 -17.167910 -4.419421
LeftForeArm -15.552397 0.000000 -2.016039
LeftHand 1.493315 -0.000000 56.015641
LeftHandThumb1 -26.253704 0.000000 33.147579
RightShoulder 15.512678 5.115602 -43.445796
RightArm 41.038508 56.917005 2.174886
RightForeArm 0.719339 -0.000000 15.612263
RightHand -8.940921 -0.000000 -74.551006
RightHandThumb1 -24.326973 -0.000000 -32.862282
LeftUpLeg -42.423839 4.334079 1.244559
LeftLeg 7.072545 -0.000000 -0.000000
LeftFoot -19.317400 24.047972 -10.731596
LeftToeBase -4.717449 -0.000000 0.000000
RightUpLeg -104.865457 11.119591 27.395099
RightLeg 52.564298 -0.000000 -0.000000
RightFoot -37.428502 -7.941207 19.148414
RightToeBase 9.586904 -0.000000 -0.000000
1448
root 18.805496 32.243823 -21.616499 -377.700555 81.771908 -452.692990
Spine 70.947964 6.742425 -3.479683
Head -20.186902 6.766860 0.461885
LeftShoulder 6.165633 -40.472315 35.913634
LeftArm 47.828961 -16.715919 -4.674517
LeftForeArm -15.409210 0.000000 -1.905185
LeftHand 1.469262 -0.000000 56.303477
LeftHandThumb1 -26.253704 0.000000 33.147579
RightShoulder 16.312628 4.370502 -43.366874
RightArm 38.853935 56.685773 0.465836
RightForeArm 1.470992 -0.000000 16.475776
RightHand -9.290810 -0.000000 -74.951855
RightHandThumb1 -24.326973 -0.000000 -32.862282
LeftUpLeg -41.646756 4.336130 1.116327
LeftLeg 6.937151 -0.000000 -0.000000
LeftFoot -20.095631 23.697723 -11.155852
LeftToeBase -4.173691 -0.000000 0.000000
RightUpLeg -104.721926 10.916158 27.694159
RightLeg 52.401486 -0.000000 -0.000000
RightFoot -37.157619 -7.392909 19.122414
RightToeBase 9.540576 -0.000000 -0.000000
1449
root 18.836595 32.140440 -21.598861 -377.774468 81.877655 -452.340521
Spine 70.855760 6.892615 -3.518504
Head -19.679183 6.666667 0.690883
LeftShoulder 6.532110 -40.375519 35.840597
LeftArm 48.057541 -16.325710 -5.071348
LeftForeArm -15.137849 -0.000000 -1.817196
LeftHand 1.391653 -0.000000 56.667282
LeftHandThumb1 -26.253704 0.000000 33.147579
RightShoulder 17.098969 3.617861 -43.247728
RightArm 36.825656 56.352281 -1.146373
RightForeArm 2.259402 -0.000000 17.312690
RightHand -9.577768 -0.000000 -75.487699
RightHandThumb1 -24.326973 -0.000000 -32.862282
LeftUpLeg -41.040608 4.326292 1.053636
LeftLeg 6.886450 -0.000000 -0.000000
LeftFoot -20.876067 23.418318 -11.542345
LeftToeBase -3.835156 -0.000000 0.000000
RightUpLeg -104.661225 10.805457 27.816755
RightLeg 52.230653 -0.000000 -0.000000
RightFoot -36.824713 -6.952004 19.229395
RightToeBase 9.001975 -0.000000 -0.000000
1450
root 18.886680 32.030038 -21.585689 -378.072474 81.941085 -452.059690
Spine 70.959745 7.012725 -3.516934
Head -19.316281 6.627913 0.746303
LeftShoulder 6.998981 -40.424211 35.641066
LeftArm 48.031674 -15.683365 -5.216160
LeftForeArm -15.054794 -0.000000 -1.579904
LeftHand 1.266914 -0.000000 57.034889
LeftHandThumb1 -26.253704 0.000000 33.147579
RightShoulder 17.919083 2.881006 -43.242611
RightArm 34.898660 56.094324 -2.661540
RightForeArm 3.023516 -0.000000 18.013885
RightHand -9.760867 -0.000000 -75.973237
RightHandThumb1 -24.326973 -0.000000 -32.862282
LeftUpLeg -40.218215 4.378461 0.997556
LeftLeg 6.779372 -0.000000 -0.000000
LeftFoot -21.666846 23.025071 -12.045202
LeftToeBase -3.657684 -0.000000 0.000000
RightUpLeg -104.371946 10.614600 27.917169
RightLeg 52.070143 -0.000000 -0.000000
RightFoot -36.625476 -6.619997 19.187249
RightToeBase 8.351932 -0.000000 -0.000000
1451
root 18.933477 31.915665 -21.578622 -379.031064 82.062393 -452.414824
Spine 71.154546 7.243962 -2.963121
Head -18.946119 6.488151 0.860299
LeftShoulder 7.779868 -40.544612 35.348971
LeftArm 48.333035 -15.294243 -5.645491
LeftForeArm -14.960491 -0.000000 -1.655606
LeftHand 1.294466 -0.000000 57.371346
LeftHandThumb1 -26.253704 0.000000 33.147579
RightShoulder 18.606718 1.663948 -43.167004
RightArm 32.097753 55.790104 -5.006743
RightForeArm 4.072142 -0.000000 18.862680
RightHand -10.018095 -0.000000 -76.385474
RightHandThumb1 -24.326973 -0.000000 -32.862282
LeftUpLeg -39.385135 4.299168 1.043617
LeftLeg 6.695124 -0.000000 -0.000000
LeftFoot -22.499151 22.673184 -12.445988
LeftToeBase -3.285480 -0.000000 0.000000
RightUpLeg -104.093195 10.320485 27.899361
RightLeg 51.952676 -0.000000 -0.000000
RightFoot -36.383503 -6.118638 19.087185
RightToeBase 8.063102 -0.000000 -0.000000
1452
root 18.971797 31.805067 -21.544057 -379.948011 81.990441 -453.003374
Spine 70.974030 7.516223 -2.521792
Head -18.518220 6.346840 0.725707
LeftShoulder 8.397516 -40.927917 35.001902
LeftArm 48.502596 -14.528076 -6.245956
LeftForeArm -14.646599 -0.000000 -1.443305
LeftHand 1.326400 -0.000000 58.057743
LeftHandThumb1 -26.253704 0.000000 33.147579
RightShoulder 18.549478 2.097389 -42.979199
RightArm 33.166454 54.704065 -3.403607
RightForeArm 3.802403 -0.000000 19.325247
RightHand -9.904291 -0.000000 -77.297977
RightHandThumb1 -24.326973 -0.000000 -32.862282
LeftUpLeg -38.861638 4.475103 1.175882
LeftLeg 6.682499 -0.000000 -0.000000
LeftFoot -23.413466 22.279343 -12.677754
LeftToeBase -2.762152 -0.000000 0.000000
RightUpLeg -103.869786 10.368364 27.749852
RightLeg 51.643915 -0.000000 -0.000000
RightFoot -36.198597 -5.811219 19.094150
RightToeBase 7.888065 -0.000000 -0.000000
